<?xml version="1.0" encoding="iso-8859-1"?>
<!-- Generator: Adobe Illustrator 18.0.0, SVG Export Plug-In . SVG Version: 6.00 Build 0)  -->
<!DOCTYPE svg PUBLIC "-//W3C//DTD SVG 1.1//EN" "http://www.w3.org/Graphics/SVG/1.1/DTD/svg11.dtd">
<svg version="1.1" id="Capa_1" xmlns="http://www.w3.org/2000/svg" xmlns:xlink="http://www.w3.org/1999/xlink" x="0px" y="0px"
	 viewBox="0 0 59 59" style="enable-background:new 0 0 59 59;" xml:space="preserve">
<g>
	<path style="fill:#7383BF;" d="M9.12,54.262l-0.188-0.887C8.641,51.999,7.408,51,6,51H4.897L9.093,8H10
		c1.408,0,2.641-0.999,2.932-2.375l0.224-1.055l27.105,7.897l-0.193,0.908C40.022,13.587,40,13.797,40,14c0,1.654,1.346,3,3,3h0.687
		l10.769,28H53c-1.654,0-3,1.346-3,3c0,0.203,0.022,0.413,0.067,0.624l0.23,1.08L9.12,54.262z M7.09,49.122
		c1.575,0.356,2.902,1.466,3.525,2.962L48,47.946c0.023-2.255,1.547-4.156,3.618-4.752L42.294,18.95C39.87,18.606,38,16.518,38,14
		c0-0.036,0-0.071,0.001-0.107L14.553,7.061c-0.671,1.477-2.038,2.553-3.637,2.854L7.09,49.122z"/>
	<g>
		<circle style="fill:#434C6D;" cx="10" cy="5" r="4"/>
		<path style="fill:#434C6D;" d="M10,10c-2.757,0-5-2.243-5-5s2.243-5,5-5s5,2.243,5,5S12.757,10,10,10z M10,2C8.346,2,7,3.346,7,5
			s1.346,3,3,3s3-1.346,3-3S11.654,2,10,2z"/>
	</g>
	<g>
		<circle style="fill:#434C6D;" cx="6" cy="54" r="4"/>
		<path style="fill:#434C6D;" d="M6,59c-2.757,0-5-2.243-5-5s2.243-5,5-5s5,2.243,5,5S8.757,59,6,59z M6,51c-1.654,0-3,1.346-3,3
			s1.346,3,3,3s3-1.346,3-3S7.654,51,6,51z"/>
	</g>
	<g>
		<circle style="fill:#434C6D;" cx="53" cy="48" r="4"/>
		<path style="fill:#434C6D;" d="M53,53c-2.757,0-5-2.243-5-5s2.243-5,5-5s5,2.243,5,5S55.757,53,53,53z M53,45
			c-1.654,0-3,1.346-3,3s1.346,3,3,3s3-1.346,3-3S54.654,45,53,45z"/>
	</g>
	<g>
		<circle style="fill:#26B99A;" cx="43" cy="14" r="4"/>
		<path style="fill:#26B99A;" d="M43,19c-2.757,0-5-2.243-5-5s2.243-5,5-5s5,2.243,5,5S45.757,19,43,19z M43,11
			c-1.654,0-3,1.346-3,3s1.346,3,3,3s3-1.346,3-3S44.654,11,43,11z"/>
	</g>
</g>
<g>
</g>
<g>
</g>
<g>
</g>
<g>
</g>
<g>
</g>
<g>
</g>
<g>
</g>
<g>
</g>
<g>
</g>
<g>
</g>
<g>
</g>
<g>
</g>
<g>
</g>
<g>
</g>
<g>
</g>
</svg>
