<?xml version="1.0" encoding="UTF-8" standalone="no"?>
<svg
   width="390"
   height="90"
   id="svg2"
   version="1.1"
   inkscape:version="1.1.2 (0a00cf5339, 2022-02-04)"
   sodipodi:docname="neuroscout_simpler_dark_blue.svg"
   inkscape:export-filename="/home/zorro/Downloads/dark_blue.png"
   inkscape:export-xdpi="90"
   inkscape:export-ydpi="90"
   xmlns:inkscape="http://www.inkscape.org/namespaces/inkscape"
   xmlns:sodipodi="http://sodipodi.sourceforge.net/DTD/sodipodi-0.dtd"
   xmlns="http://www.w3.org/2000/svg"
   xmlns:svg="http://www.w3.org/2000/svg"
   xmlns:rdf="http://www.w3.org/1999/02/22-rdf-syntax-ns#"
   xmlns:cc="http://creativecommons.org/ns#"
   xmlns:dc="http://purl.org/dc/elements/1.1/">
  <metadata
     id="metadata49">
    <rdf:RDF>
      <cc:Work
         rdf:about="">
        <dc:format>image/svg+xml</dc:format>
        <dc:type
           rdf:resource="http://purl.org/dc/dcmitype/StillImage" />
      </cc:Work>
    </rdf:RDF>
  </metadata>
  <defs
     id="defs47">
    <style
       type="text/css"
       id="style18849">
   
    .fil0 {fill:black;fill-rule:nonzero}
   
  </style>
  </defs>
  <sodipodi:namedview
     pagecolor="#ffffff"
     bordercolor="#666666"
     borderopacity="1"
     objecttolerance="10"
     gridtolerance="10"
     guidetolerance="10"
     inkscape:pageopacity="0"
     inkscape:pageshadow="2"
     inkscape:window-width="1551"
     inkscape:window-height="752"
     id="namedview45"
     showgrid="false"
     showguides="true"
     inkscape:zoom="1.3350176"
     inkscape:cx="241.19532"
     inkscape:cy="49.063024"
     inkscape:window-x="171"
     inkscape:window-y="202"
     inkscape:window-maximized="0"
     inkscape:current-layer="text3377"
     width="250px"
     inkscape:pagecheckerboard="0" />
  <style
     type="text/css"
     id="style4">.st0{fill:none;stroke:#000000;stroke-width:2;stroke-linecap:round;stroke-linejoin:round;stroke-miterlimit:10;}
	.st1{fill:none;stroke:#000000;stroke-width:2;stroke-linecap:round;stroke-linejoin:round;}
	.st2{fill:none;stroke:#000000;stroke-width:2;stroke-linecap:round;stroke-linejoin:round;stroke-dasharray:2.9177,3.8902;}
	.st3{fill:none;stroke:#000000;stroke-width:2;stroke-linecap:round;stroke-linejoin:round;stroke-dasharray:2.9655,3.954;}
	.st4{fill:none;stroke:#000000;stroke-width:2;stroke-linecap:round;stroke-linejoin:round;stroke-dasharray:2.7633,3.6844;}
	.st5{fill:none;stroke:#000000;stroke-width:1.8;stroke-linecap:round;stroke-linejoin:round;stroke-miterlimit:10;}</style>
  <g
     id="g6"
     transform="translate(0,-35)">
    <title
       id="title8">background</title>
    <rect
       id="canvas_background"
       height="402"
       width="582"
       y="-1"
       x="-1"
       style="fill:none" />
  </g>
  <g
     aria-label="Neuroscout"
     id="text3377"
     style="font-size:53.3333px;line-height:0%;letter-spacing:0px;word-spacing:0px;stroke-width:1px">
    <path
       d="M 117.32369,26.175585 V 55.135568 L 99.883701,26.175585 h -5.066663 v 37.173311 h 4.746664 V 34.282247 l 17.386658,29.066649 h 5.11999 V 26.175585 Z"
       style="font-weight:500;line-height:1.25;font-family:'HK Grotesk';-inkscape-font-specification:'HK Grotesk Medium'"
       id="path16133" />
    <path
       d="m 153.53686,49.215571 c 0,-6.399996 -3.57333,-12.639992 -11.62666,-12.639992 -7.99999,0 -11.94666,6.506662 -11.94666,13.759991 0,7.306663 4,13.493326 12.37333,13.493326 4.16,0 7.36,-1.333333 10.34666,-4.533331 L 149.53687,56.4689 c -2.24,2.399999 -4.48,3.146665 -7.14667,3.146665 -4.85333,0 -7.67999,-3.039998 -7.83999,-8.053329 h 18.82665 c 0.10667,-0.693333 0.16,-1.599999 0.16,-2.346665 z m -18.98665,-1.386666 c 0.32,-3.946664 2.82666,-7.413329 7.30666,-7.413329 4.42666,0 7.09333,2.879999 7.25333,6.93333 0,0.213333 0,0.373333 0.0533,0.479999 z"
       style="font-weight:500;line-height:1.25;font-family:'HK Grotesk';-inkscape-font-specification:'HK Grotesk Medium'"
       id="path16135" />
    <path
       d="m 176.89684,37.055578 v 11.413327 c 0,6.079996 -1.76,11.30666 -7.25333,11.30666 -4.95999,0 -5.43999,-4.213331 -5.43999,-7.626662 V 37.055578 h -4.58667 v 16.213324 c 0,6.186663 2.66667,10.559994 8.85333,10.559994 3.30667,0 6.56,-1.279999 8.42666,-4.053331 v 3.573331 h 4.58667 V 37.055578 Z"
       style="font-weight:500;line-height:1.25;font-family:'HK Grotesk';-inkscape-font-specification:'HK Grotesk Medium'"
       id="path16137" />
    <path
       d="m 202.60349,36.575579 c -2.77333,0 -5.92,1.226666 -7.57333,4.586664 v -4.106665 h -4.58666 v 26.293318 h 4.58666 V 49.162238 c 0,-5.439997 2.61333,-8.266662 6.61333,-8.266662 1.17333,0 2.29333,0.266667 3.41333,0.8 l 2.24,-3.839998 c -1.54666,-0.906666 -3.04,-1.279999 -4.69333,-1.279999 z"
       style="font-weight:500;line-height:1.25;font-family:'HK Grotesk';-inkscape-font-specification:'HK Grotesk Medium'"
       id="path16139" />
    <path
       d="m 220.41678,63.828896 c 7.73332,0 12.85332,-6.026663 12.85332,-13.653325 0,-7.679996 -5.17333,-13.599992 -12.85332,-13.599992 -7.73333,0 -12.74666,5.919996 -12.74666,13.599992 0,7.679995 5.01333,13.653325 12.74666,13.653325 z m 0,-4.053331 c -5.33333,0 -8.16,-4.213331 -8.16,-9.599994 0,-5.386664 2.77333,-9.546661 8.16,-9.546661 5.38666,0 8.26666,4.106664 8.26666,9.546661 0,5.33333 -2.88,9.599994 -8.26666,9.599994 z"
       style="font-weight:500;line-height:1.25;font-family:'HK Grotesk';-inkscape-font-specification:'HK Grotesk Medium'"
       id="path16141" />
    <path
       d="m 247.93671,63.828896 c 5.01333,0 9.70666,-2.666665 9.70666,-8.266662 0,-9.866661 -14.71999,-6.453329 -14.71999,-11.94666 0,-1.919998 1.81333,-3.146664 4.69333,-3.146664 3.09333,0 4.95999,1.546665 6.13333,3.679997 l 3.62666,-1.973332 c -1.86666,-3.679997 -5.33333,-5.599996 -9.65333,-5.599996 -5.17333,0 -9.22666,2.773331 -9.22666,7.519995 0,9.493328 14.61333,5.599997 14.61333,11.733327 0,2.293331 -1.92,4.05333 -5.33333,4.05333 -3.89333,0 -6.08,-2.346665 -6.93333,-4.799997 l -3.78667,1.706666 c 1.38667,4.106664 5.6,7.039996 10.88,7.039996 z"
       style="font-weight:500;line-height:1.25;font-family:'HK Grotesk';-inkscape-font-specification:'HK Grotesk Medium'"
       id="path16143" />
    <path
       d="m 274.17655,63.828896 c 4.90666,0 8.79999,-2.666665 10.55999,-7.466662 l -4.21333,-1.6 c -0.90667,3.146665 -3.30667,5.013331 -6.4,5.013331 -5.22666,0 -7.46666,-4.533331 -7.46666,-9.493328 0,-4.959997 2.24,-9.653327 7.46666,-9.653327 3.04,0 5.44,1.919998 6.50667,5.119997 l 4.37333,-1.759999 c -2.08,-5.013331 -6.02667,-7.413329 -10.88,-7.413329 -8.15999,0 -12.15999,6.773329 -12.15999,13.706658 0,7.199996 4.26666,13.546659 12.21333,13.546659 z"
       style="font-weight:500;line-height:1.25;font-family:'HK Grotesk';-inkscape-font-specification:'HK Grotesk Medium'"
       id="path16145" />
    <path
       d="m 301.21639,63.828896 c 7.73333,0 12.85333,-6.026663 12.85333,-13.653325 0,-7.679996 -5.17333,-13.599992 -12.85333,-13.599992 -7.73333,0 -12.74666,5.919996 -12.74666,13.599992 0,7.679995 5.01333,13.653325 12.74666,13.653325 z m 0,-4.053331 c -5.33333,0 -8.15999,-4.213331 -8.15999,-9.599994 0,-5.386664 2.77333,-9.546661 8.15999,-9.546661 5.38666,0 8.26666,4.106664 8.26666,9.546661 0,5.33333 -2.88,9.599994 -8.26666,9.599994 z"
       style="font-weight:500;line-height:1.25;font-family:'HK Grotesk';-inkscape-font-specification:'HK Grotesk Medium'"
       id="path16147" />
    <path
       d="m 337.10955,37.055578 v 11.413327 c 0,6.079996 -1.76,11.30666 -7.25333,11.30666 -4.96,0 -5.44,-4.213331 -5.44,-7.626662 V 37.055578 h -4.58666 v 16.213324 c 0,6.186663 2.66667,10.559994 8.85333,10.559994 3.30666,0 6.55999,-1.279999 8.42666,-4.053331 v 3.573331 h 4.58666 V 37.055578 Z"
       style="font-weight:500;line-height:1.25;font-family:'HK Grotesk';-inkscape-font-specification:'HK Grotesk Medium'"
       id="path16149" />
    <path
       d="m 362.60287,40.788909 v -3.733331 h -6.45333 v -9.653327 l -4.58667,3.413331 v 6.239996 h -4.32 v 3.733331 h 4.32 V 56.7889 c 0,4.959997 2.98667,7.039996 6.77333,7.039996 1.38667,0 2.82667,-0.266667 4.26667,-0.746666 v -3.893331 c -1.17334,0.373333 -2.24,0.586666 -3.14667,0.586666 -2.08,0 -3.30666,-1.066666 -3.30666,-3.466665 V 40.788909 Z"
       style="font-weight:500;line-height:1.25;font-family:'HK Grotesk';-inkscape-font-specification:'HK Grotesk Medium'"
       id="path16151" />
  </g>
  <style
     type="text/css"
     id="style4-7">.st0{fill:none;stroke:#000000;stroke-width:2;stroke-linecap:round;stroke-linejoin:round;stroke-miterlimit:10;}
	.st1{fill:none;stroke:#000000;stroke-width:2;stroke-linecap:round;stroke-linejoin:round;}
	.st2{fill:none;stroke:#000000;stroke-width:2;stroke-linecap:round;stroke-linejoin:round;stroke-dasharray:2.9177,3.8902;}
	.st3{fill:none;stroke:#000000;stroke-width:2;stroke-linecap:round;stroke-linejoin:round;stroke-dasharray:2.9655,3.954;}
	.st4{fill:none;stroke:#000000;stroke-width:2;stroke-linecap:round;stroke-linejoin:round;stroke-dasharray:2.7633,3.6844;}
	.st5{fill:none;stroke:#000000;stroke-width:1.8;stroke-linecap:round;stroke-linejoin:round;stroke-miterlimit:10;}</style>
  <g
     style="clip-rule:evenodd;fill-rule:evenodd;image-rendering:optimizeQuality;shape-rendering:geometricPrecision;text-rendering:geometricPrecision"
     id="g18864"
     transform="matrix(0.08404081,0,0,0.08404081,11.839533,8.1429684)"
     inkscape:export-filename="/home/zorro/Downloads/neuroscout_dark_blue.png"
     inkscape:export-xdpi="154.89"
     inkscape:export-ydpi="154.89">
    <path
       class="fil0"
       d="m 423.33,777.26 c 78.64682,0 151.29971,-25.64779 210.05141,-69.03609 C 720.65954,643.76875 777.26,540.16318 777.26,423.33 777.26,227.85 618.81,69.4 423.33,69.4 227.85,69.4 69.4,227.85 69.4,423.33 c 0,195.48 158.45,353.93 353.93,353.93 z m 22.2,-35.54 C 604.1,730.82 730.83,604.1 741.72,445.53 h -56.2 v -44.4 h 56.2 C 730.83,242.56 604.1,115.84 445.53,104.94 v 56.2 h -44.4 v -56.2 c -158.57,10.9 -285.3,137.62 -296.19,296.19 h 56.2 v 44.4 h -56.2 c 10.89,158.57 137.62,285.29 296.19,296.19 v -56.2 h 44.4 z M 557.56,241.13 516.72,461.98 c -1.69,9.14 -6.15,16.88 -13.22,22.91 L 332.65,630.68 c -21.57,18.44 -48.72,2.76 -43.55,-25.15 l 40.84,-220.85 c 1.69,-9.14 6.15,-16.88 13.22,-22.91 L 514.01,215.98 c 21.57,-18.44 48.72,-2.76 43.55,25.15 z M 440.98,392.75 c 16.89,9.76 22.67,31.35 12.93,48.23 -9.76,16.89 -31.35,22.67 -48.24,12.93 -16.88,-9.76 -22.66,-31.35 -12.92,-48.23 9.76,-16.89 31.35,-22.67 48.23,-12.93 z m -17.65,425.38 c -218.04,0 -394.8,-176.76 -394.8,-394.8 0,-218.04 176.76,-394.8 394.8,-394.8 218.04,0 394.8,176.76 394.8,394.8 0,218.04 -176.76,394.8 -394.8,394.8 z"
       id="path18853"
       style="fill:#2f5eb6;fill-opacity:1"
       sodipodi:nodetypes="sssssscccccccccccccccccccccccccccccccsssss" />
  </g>
</svg>
