<?xml version="1.0" encoding="UTF-8" standalone="no"?>
<svg
   width="66.358627"
   height="66.358627"
   id="svg2"
   version="1.1"
   inkscape:version="1.1.2 (0a00cf5339, 2022-02-04)"
   sodipodi:docname="neuroscout_blue_compass.svg"
   inkscape:export-filename="/home/zorro/Downloads/dark_blue.png"
   inkscape:export-xdpi="90"
   inkscape:export-ydpi="90"
   xmlns:inkscape="http://www.inkscape.org/namespaces/inkscape"
   xmlns:sodipodi="http://sodipodi.sourceforge.net/DTD/sodipodi-0.dtd"
   xmlns="http://www.w3.org/2000/svg"
   xmlns:svg="http://www.w3.org/2000/svg"
   xmlns:rdf="http://www.w3.org/1999/02/22-rdf-syntax-ns#"
   xmlns:cc="http://creativecommons.org/ns#"
   xmlns:dc="http://purl.org/dc/elements/1.1/">
  <metadata
     id="metadata49">
    <rdf:RDF>
      <cc:Work
         rdf:about="">
        <dc:format>image/svg+xml</dc:format>
        <dc:type
           rdf:resource="http://purl.org/dc/dcmitype/StillImage" />
      </cc:Work>
    </rdf:RDF>
  </metadata>
  <defs
     id="defs47">
    <style
       type="text/css"
       id="style18849">
   
    .fil0 {fill:black;fill-rule:nonzero}
   
  </style>
  </defs>
  <sodipodi:namedview
     pagecolor="#ffffff"
     bordercolor="#666666"
     borderopacity="1"
     objecttolerance="10"
     gridtolerance="10"
     guidetolerance="10"
     inkscape:pageopacity="0"
     inkscape:pageshadow="2"
     inkscape:window-width="1846"
     inkscape:window-height="1016"
     id="namedview45"
     showgrid="false"
     showguides="true"
     inkscape:zoom="1.3350176"
     inkscape:cx="138.20043"
     inkscape:cy="38.57627"
     inkscape:window-x="74"
     inkscape:window-y="27"
     inkscape:window-maximized="1"
     inkscape:current-layer="svg2"
     width="300px"
     inkscape:pagecheckerboard="0"
     fit-margin-top="0"
     fit-margin-left="0"
     fit-margin-right="0"
     fit-margin-bottom="0" />
  <style
     type="text/css"
     id="style4">.st0{fill:none;stroke:#000000;stroke-width:2;stroke-linecap:round;stroke-linejoin:round;stroke-miterlimit:10;}
	.st1{fill:none;stroke:#000000;stroke-width:2;stroke-linecap:round;stroke-linejoin:round;}
	.st2{fill:none;stroke:#000000;stroke-width:2;stroke-linecap:round;stroke-linejoin:round;stroke-dasharray:2.9177,3.8902;}
	.st3{fill:none;stroke:#000000;stroke-width:2;stroke-linecap:round;stroke-linejoin:round;stroke-dasharray:2.9655,3.954;}
	.st4{fill:none;stroke:#000000;stroke-width:2;stroke-linecap:round;stroke-linejoin:round;stroke-dasharray:2.7633,3.6844;}
	.st5{fill:none;stroke:#000000;stroke-width:1.8;stroke-linecap:round;stroke-linejoin:round;stroke-miterlimit:10;}</style>
  <g
     id="g6"
     transform="translate(-14.237217,-45.540652)">
    <title
       id="title8">background</title>
    <rect
       id="canvas_background"
       height="402"
       width="582"
       y="-1"
       x="-1"
       style="fill:none" />
  </g>
  <style
     type="text/css"
     id="style4-7">.st0{fill:none;stroke:#000000;stroke-width:2;stroke-linecap:round;stroke-linejoin:round;stroke-miterlimit:10;}
	.st1{fill:none;stroke:#000000;stroke-width:2;stroke-linecap:round;stroke-linejoin:round;}
	.st2{fill:none;stroke:#000000;stroke-width:2;stroke-linecap:round;stroke-linejoin:round;stroke-dasharray:2.9177,3.8902;}
	.st3{fill:none;stroke:#000000;stroke-width:2;stroke-linecap:round;stroke-linejoin:round;stroke-dasharray:2.9655,3.954;}
	.st4{fill:none;stroke:#000000;stroke-width:2;stroke-linecap:round;stroke-linejoin:round;stroke-dasharray:2.7633,3.6844;}
	.st5{fill:none;stroke:#000000;stroke-width:1.8;stroke-linecap:round;stroke-linejoin:round;stroke-miterlimit:10;}</style>
  <g
     style="clip-rule:evenodd;fill-rule:evenodd;image-rendering:optimizeQuality;shape-rendering:geometricPrecision;text-rendering:geometricPrecision"
     id="g18864"
     transform="matrix(0.08404081,0,0,0.08404081,-2.3976843,-2.3976843)"
     inkscape:export-filename="/home/zorro/Downloads/neuroscout_dark_blue.png"
     inkscape:export-xdpi="154.89"
     inkscape:export-ydpi="154.89">
    <path
       class="fil0"
       d="m 423.33,777.26 c 78.64682,0 151.29971,-25.64779 210.05141,-69.03609 C 720.65954,643.76875 777.26,540.16318 777.26,423.33 777.26,227.85 618.81,69.4 423.33,69.4 227.85,69.4 69.4,227.85 69.4,423.33 c 0,195.48 158.45,353.93 353.93,353.93 z m 22.2,-35.54 C 604.1,730.82 730.83,604.1 741.72,445.53 h -56.2 v -44.4 h 56.2 C 730.83,242.56 604.1,115.84 445.53,104.94 v 56.2 h -44.4 v -56.2 c -158.57,10.9 -285.3,137.62 -296.19,296.19 h 56.2 v 44.4 h -56.2 c 10.89,158.57 137.62,285.29 296.19,296.19 v -56.2 h 44.4 z M 557.56,241.13 516.72,461.98 c -1.69,9.14 -6.15,16.88 -13.22,22.91 L 332.65,630.68 c -21.57,18.44 -48.72,2.76 -43.55,-25.15 l 40.84,-220.85 c 1.69,-9.14 6.15,-16.88 13.22,-22.91 L 514.01,215.98 c 21.57,-18.44 48.72,-2.76 43.55,25.15 z M 440.98,392.75 c 16.89,9.76 22.67,31.35 12.93,48.23 -9.76,16.89 -31.35,22.67 -48.24,12.93 -16.88,-9.76 -22.66,-31.35 -12.92,-48.23 9.76,-16.89 31.35,-22.67 48.23,-12.93 z m -17.65,425.38 c -218.04,0 -394.8,-176.76 -394.8,-394.8 0,-218.04 176.76,-394.8 394.8,-394.8 218.04,0 394.8,176.76 394.8,394.8 0,218.04 -176.76,394.8 -394.8,394.8 z"
       id="path18853"
       style="fill:#446db7;fill-opacity:1"
       sodipodi:nodetypes="sssssscccccccccccccccccccccccccccccccsssss" />
  </g>
</svg>
