<?xml version="1.0" encoding="UTF-8" standalone="no"?>
<svg
   xmlns:dc="http://purl.org/dc/elements/1.1/"
   xmlns:cc="http://creativecommons.org/ns#"
   xmlns:rdf="http://www.w3.org/1999/02/22-rdf-syntax-ns#"
   xmlns:svg="http://www.w3.org/2000/svg"
   xmlns="http://www.w3.org/2000/svg"
   xmlns:sodipodi="http://sodipodi.sourceforge.net/DTD/sodipodi-0.dtd"
   xmlns:inkscape="http://www.inkscape.org/namespaces/inkscape"
   width="380"
   height="90"
   id="svg2"
   version="1.1"
   inkscape:version="0.92.3 (d244b95, 2018-08-02)"
   sodipodi:docname="Neuroscout_Simple_Wide.svg"
   inkscape:export-filename="/home/zorro/Downloads/method-draw-image (8).svg.png"
   inkscape:export-xdpi="90"
   inkscape:export-ydpi="90">
  <metadata
     id="metadata49">
    <rdf:RDF>
      <cc:Work
         rdf:about="">
        <dc:format>image/svg+xml</dc:format>
        <dc:type
           rdf:resource="http://purl.org/dc/dcmitype/StillImage" />
        <dc:title></dc:title>
      </cc:Work>
    </rdf:RDF>
  </metadata>
  <defs
     id="defs47" />
  <sodipodi:namedview
     pagecolor="#ffffff"
     bordercolor="#666666"
     borderopacity="1"
     objecttolerance="10"
     gridtolerance="10"
     guidetolerance="10"
     inkscape:pageopacity="0"
     inkscape:pageshadow="2"
     inkscape:window-width="1850"
     inkscape:window-height="1016"
     id="namedview45"
     showgrid="false"
     showguides="false"
     inkscape:zoom="2.6700352"
     inkscape:cx="159.40317"
     inkscape:cy="122.31824"
     inkscape:window-x="70"
     inkscape:window-y="27"
     inkscape:window-maximized="1"
     inkscape:current-layer="svg2"
     width="250px" />
  <style
     type="text/css"
     id="style4">.st0{fill:none;stroke:#000000;stroke-width:2;stroke-linecap:round;stroke-linejoin:round;stroke-miterlimit:10;}
	.st1{fill:none;stroke:#000000;stroke-width:2;stroke-linecap:round;stroke-linejoin:round;}
	.st2{fill:none;stroke:#000000;stroke-width:2;stroke-linecap:round;stroke-linejoin:round;stroke-dasharray:2.9177,3.8902;}
	.st3{fill:none;stroke:#000000;stroke-width:2;stroke-linecap:round;stroke-linejoin:round;stroke-dasharray:2.9655,3.954;}
	.st4{fill:none;stroke:#000000;stroke-width:2;stroke-linecap:round;stroke-linejoin:round;stroke-dasharray:2.7633,3.6844;}
	.st5{fill:none;stroke:#000000;stroke-width:1.8;stroke-linecap:round;stroke-linejoin:round;stroke-miterlimit:10;}</style>
  <g
     id="g6"
     transform="translate(0,-35)">
    <title
       id="title8">background</title>
    <rect
       id="canvas_background"
       height="402"
       width="582"
       y="-1"
       x="-1"
       style="fill:none" />
  </g>
  <g
     id="g11"
     inkscape:export-xdpi="154.89"
     inkscape:export-ydpi="154.89"
     transform="translate(-8.6141186,-4.6633209)">
    <title
       id="title13">Layer 1</title>
    <path
       id="svg_1"
       d="m 35.6,21.2 c -8.2,-3.4 -17.6,0.5 -21.1,8.7 -1.7,4 -1.7,8.3 0,12.3 1.6,4 4.7,7.1 8.7,8.7 2,0.8 4.1,1.2 6.2,1.2 2.1,0 4.2,-0.4 6.1,-1.2 4,-1.6 7.1,-4.7 8.7,-8.7 3.5,-8.1 -0.4,-17.6 -8.6,-21 z m 6.8,20.3 c -1.5,3.5 -4.2,6.2 -7.7,7.6 -3.5,1.4 -7.3,1.4 -10.8,0 -3.5,-1.5 -6.2,-4.2 -7.6,-7.7 -1.4,-3.5 -1.4,-7.3 0,-10.8 3,-7.2 11.3,-10.6 18.4,-7.6 7.3,3 10.7,11.3 7.7,18.5 z"
       inkscape:connector-curvature="0" />
    <path
       id="svg_2"
       d="m 32.6,28.5 c 0.1,0.1 0.3,0.1 0.4,0.1 0.4,0 0.8,-0.2 0.9,-0.6 L 35,25.4 c 0.2,-0.5 0,-1.1 -0.5,-1.3 -0.5,-0.2 -1.1,0 -1.3,0.5 l -1.1,2.6 c -0.2,0.5 0,1.1 0.5,1.3 z"
       inkscape:connector-curvature="0" />
    <path
       id="svg_3"
       d="m 26.3,43.7 c -0.5,-0.2 -1.1,0 -1.3,0.5 l -1.1,2.6 c -0.2,0.5 0,1.1 0.5,1.3 0.1,0.1 0.3,0.1 0.4,0.1 0.4,0 0.8,-0.2 0.9,-0.6 L 26.8,45 c 0.3,-0.5 0,-1.1 -0.5,-1.3 z"
       inkscape:connector-curvature="0" />
    <path
       id="svg_4"
       d="m 37.2,39 c -0.2,0.5 0,1.1 0.5,1.3 l 2.6,1.1 c 0.1,0.1 0.3,0.1 0.4,0.1 0.4,0 0.8,-0.2 0.9,-0.6 0.2,-0.5 0,-1.1 -0.5,-1.3 l -2.6,-1.1 c -0.5,-0.3 -1.1,0 -1.3,0.5 z"
       inkscape:connector-curvature="0" />
    <path
       id="svg_5"
       d="m 20.7,33.2 c 0.1,0.1 0.3,0.1 0.4,0.1 0.4,0 0.8,-0.2 0.9,-0.6 0.2,-0.5 0,-1.1 -0.5,-1.3 l -2.6,-1.1 c -0.5,-0.2 -1.1,0 -1.3,0.5 -0.2,0.5 0,1.1 0.5,1.3 z"
       inkscape:connector-curvature="0" />
    <path
       id="svg_6"
       d="m 35.9,29.8 c -0.3,0.5 -0.1,1.1 0.4,1.4 l 1.4,0.8 -6.6,2.5 c -0.2,-0.1 -0.3,-0.3 -0.5,-0.4 -0.5,-0.2 -1,-0.2 -1.5,0 -0.5,0.2 -0.9,0.6 -1.1,1 -0.1,0.2 -0.1,0.4 -0.1,0.5 l -9.4,3.6 c -0.5,0.2 -0.8,0.8 -0.6,1.3 0.2,0.4 0.5,0.6 0.9,0.6 0.1,0 0.2,0 0.4,-0.1 l 9.5,-3.6 c 0.1,0.1 0.2,0.1 0.3,0.2 0.2,0.1 0.5,0.1 0.7,0.1 0.8,0 1.5,-0.4 1.8,-1.2 0,-0.1 0.1,-0.2 0.1,-0.3 l 6.4,-2.4 -0.6,1.3 c -0.2,0.5 0,1.1 0.5,1.3 0.1,0.1 0.3,0.1 0.4,0.1 0.4,0 0.7,-0.2 0.9,-0.6 l 1.5,-3.3 c 0.1,-0.2 0.2,-0.3 0.2,-0.6 0,-0.4 -0.2,-0.8 -0.5,-0.9 l -3.3,-1.9 c -0.3,-0.1 -0.9,0.1 -1.2,0.6 z"
       inkscape:connector-curvature="0" />
    <path
       id="svg_7"
       d="m 89.359067,23.3 -36,-14.5 c -0.2,-0.1 -0.5,-0.1 -0.8,0 -0.2,0.1 -0.4,0.3 -0.5,0.5 l -6.2,15.4 c -2.1,-3.1 -5.1,-5.5 -8.6,-6.9 -4.9,-2 -10.2,-2 -15.1,0 -4.9,2 -8.7,5.8 -10.7,10.6 -4.2,10 0.6,21.6 10.6,25.8 2.5,1 5,1.5 7.6,1.5 1.3,0 2.6,-0.1 3.9,-0.4 l -8.9,22.2 c -0.1,0.2 -0.1,0.5 0,0.8 0.1,0.3 0.3,0.4 0.5,0.5 l 36.1,14.6 c 0.1,0 0.2,0.1 0.4,0.1 0.4,0 0.8,-0.2 0.9,-0.6 l 27.4,-68.2 c 0.2,-0.6 -0.1,-1.2 -0.6,-1.4 z m -66.5,29.1 c -9,-3.8 -13.3,-14.2 -9.5,-23.2 1.8,-4.4 5.2,-7.8 9.6,-9.6 4.4,-1.8 9.2,-1.8 13.6,0 4.4,1.8 7.8,5.2 9.6,9.6 1.8,4.4 1.8,9.2 0,13.6 -3.9,9.1 -14.3,13.4 -23.3,9.6 z m 38.2,38.7 -34.2,-13.7 4.3,-10.7 c 0.1,0.1 0.2,0.1 0.2,0.2 0.2,0.1 0.3,0.2 0.5,0.2 0.3,0 0.7,-0.2 0.8,-0.5 0.3,-0.5 0.2,-1.1 -0.3,-1.4 -0.2,-0.1 -0.4,-0.3 -0.5,-0.4 l 4,-10 c 0,0 0,-0.1 0,-0.1 5.2,-1.8 9.7,-5.6 11.9,-11.1 0,-0.1 0.1,-0.2 0.1,-0.2 2.5,1.1 10.6,5.3 10.4,14.8 -0.3,10.7 6.1,17.9 8,19.8 z m 16.4,-40.8 -10.3,25.6 c -1.9,-2.1 -5.8,-7.1 -6.7,-14.2 l 1.9,-1.9 c 0.4,-0.4 0.4,-1 0,-1.4 -0.4,-0.4 -1,-0.4 -1.4,0 l -0.6,0.6 c 0,-0.3 0,-0.5 0,-0.8 0.3,-10.8 -9,-15.5 -11.7,-16.7 1.2,-4.3 1,-8.8 -0.7,-13 -0.2,-0.6 -0.5,-1.1 -0.8,-1.6 l 6.3,-15.9 34.2,13.8 z"
       inkscape:connector-curvature="0" />
    <path
       id="svg_9"
       d="m 44.5,68.7 c -0.3,0 -0.7,0 -1,0 -0.5,0 -1.1,0 -1.7,-0.1 -0.5,0 -1,0.3 -1.1,0.9 -0.1,0.6 0.3,1 0.9,1.1 0.6,0.1 1.3,0.1 1.9,0.1 0.4,0 0.8,0 1.2,0 0.6,0 1,-0.5 0.9,-1.1 C 45.5,69 45,68.7 44.5,68.7 Z"
       inkscape:connector-curvature="0" />
    <path
       id="svg_10"
       d="m 50.5,66.9 c -0.3,0.2 -0.6,0.3 -0.9,0.4 -0.5,0.3 -1.1,0.5 -1.7,0.7 -0.5,0.2 -0.8,0.7 -0.6,1.3 0.1,0.4 0.5,0.7 1,0.7 0.1,0 0.2,0 0.3,0 0.6,-0.2 1.3,-0.5 1.9,-0.7 0.3,-0.2 0.6,-0.3 1,-0.5 0.5,-0.3 0.7,-0.9 0.4,-1.4 -0.3,-0.6 -0.9,-0.8 -1.4,-0.5 z"
       inkscape:connector-curvature="0" />
    <path
       id="svg_11"
       d="m 55.8,63.085324 c -0.8,0.7 -1.5,1.3 -2.2,1.8 -0.4,0.3 -0.5,1 -0.2,1.4 0.2,0.3 0.5,0.4 0.8,0.4 0.2,0 0.4,-0.1 0.6,-0.2 0.7,-0.6 1.5,-1.2 2.3,-1.9 0.4,-0.4 0.5,-1 0.1,-1.4 -0.3,-0.4 -0.9,-0.4 -1.4,-0.1 z"
       inkscape:connector-curvature="0" />
    <path
       id="svg_13"
       d="m 38.1,67.9 c -0.9,-0.3 -1.8,-0.6 -2.6,-1 -0.5,-0.2 -1.1,0 -1.3,0.5 -0.2,0.5 0,1.1 0.5,1.3 0.9,0.4 1.9,0.8 2.8,1.1 0.1,0 0.2,0 0.3,0 0.4,0 0.8,-0.3 1,-0.7 0.1,-0.5 -0.2,-1.1 -0.7,-1.2 z"
       inkscape:connector-curvature="0" />
    <g
       stroke="null"
       transform="rotate(2.3004517,66.779221,27.618598)"
       id="svg_66">
      <path
         stroke="null"
         id="svg_63"
         d="m 58.429631,29.740561 c -0.39041,1.357452 0.183637,2.796881 1.362459,3.541461 0.162034,1.1329 0.93808,2.116785 2.063994,2.530564 0.772757,0.283991 1.587403,0.255742 2.300773,-0.02024 0.356169,0.669039 0.953343,1.21614 1.7261,1.500131 1.125913,0.413779 2.36572,0.170729 3.24048,-0.58137 1.38549,0.197818 2.774871,-0.519816 3.380796,-1.798292 0.849376,-0.32458 1.533348,-0.99417 1.857905,-1.852827 0.162241,-0.429229 0.226968,-0.888642 0.193173,-1.342206 0.326684,-0.321311 0.582613,-0.710231 0.744853,-1.139461 0.329811,-0.872553 0.256521,-1.812527 -0.174993,-2.60377 0.03904,-0.08084 0.07449,-0.163692 0.106303,-0.247869 0.324633,-0.858856 0.251954,-1.806518 -0.175112,-2.600423 0.240396,-0.839842 0.117136,-1.741652 -0.331889,-2.487777 0.106542,-1.387836 -0.726637,-2.713797 -2.08772,-3.214002 -0.772757,-0.283991 -1.587403,-0.255742 -2.300773,0.02024 -0.356169,-0.669039 -0.953343,-1.21614 -1.7261,-1.500131 -1.361083,-0.500205 -2.871142,-0.0354 -3.712059,1.082781 -0.834742,0.274335 -1.526446,0.876415 -1.902222,1.66673 -0.849578,0.324507 -1.533548,0.994097 -1.858181,1.852951 -0.03182,0.08418 -0.06001,0.16969 -0.08415,0.256009 -0.851449,0.31975 -1.530781,0.983131 -1.860592,1.855685 -0.162241,0.429229 -0.226892,0.888443 -0.193172,1.342206 -0.326611,0.321112 -0.582614,0.710231 -0.744855,1.13946 -0.324557,0.858657 -0.25188,1.806319 0.174985,2.600151 z m 7.328152,3.333028 0.486051,-0.05133 c 0.164817,-0.01744 0.334389,0.0035 0.489827,0.06063 l 1.153497,0.423917 0.375211,-0.992667 -1.153497,-0.423917 C 66.812494,31.981299 66.491131,31.9403 66.176217,31.966567 l 1.267688,-3.353823 c 0.551734,-0.03036 1.11069,0.05183 1.628343,0.242072 l 0.375211,-0.992667 C 68.935443,27.67398 68.391584,27.57066 67.84493,27.551781 l 1.347157,-3.564069 c 0.246785,0.343262 0.591134,0.606157 0.99966,0.756292 l 0.884704,0.325133 0.375212,-0.992667 -0.884704,-0.325133 c -0.268996,-0.09886 -0.48266,-0.294957 -0.60209,-0.552298 L 69.7035,22.634708 70.001043,21.847523 c 0.310374,-0.821134 1.240137,-1.240081 2.072894,-0.934039 0.488258,0.179437 0.839636,0.571764 0.979758,1.035234 l -1.450197,0.653454 0.446475,0.963388 1.022628,-0.460793 0.114552,0.134352 c 0.373528,0.438679 0.479885,1.043046 0.277947,1.577298 -0.0076,0.02005 -0.01732,0.04157 -0.02678,0.06297 l -0.83908,0.501792 c -0.405262,0.242239 -0.720172,0.614908 -0.890474,1.050897 l -2.014242,-0.740243 -0.375211,0.992667 2.013437,0.739947 -0.375211,0.992667 1.006718,0.369974 0.742468,-1.964287 c 0.08412,-0.222556 0.243858,-0.412801 0.449754,-0.535887 l 0.525302,-0.314117 c 0.168761,0.374958 0.188551,0.805513 0.03989,1.198808 -0.06656,0.176098 -0.165919,0.339466 -0.295139,0.485982 l -0.321542,0.364127 0.338289,0.349304 c 0.430607,0.445412 0.563754,1.078391 0.346807,1.65235 -0.06499,0.17193 -0.157494,0.328094 -0.273781,0.464664 l -1.927261,-0.708279 -0.375211,0.992667 1.630279,0.599136 0.02717,0.08099 c 0.116445,0.347141 0.109642,0.710941 -0.01943,1.052418 -0.127046,0.336117 -0.364692,0.614178 -0.666259,0.796844 -0.150952,-0.681126 -0.636837,-1.275737 -1.347178,-1.536791 l -1.006718,-0.369974 c -0.555104,-0.204004 -0.838398,-0.815284 -0.631508,-1.362642 l -1.006718,-0.369974 c -0.413783,1.094714 0.152807,2.317275 1.263015,2.725282 l 1.006718,0.369974 c 0.555104,0.204003 0.838398,0.815284 0.631508,1.36264 -0.244263,0.646226 -0.87246,1.041464 -1.536366,1.031274 l 0.342043,-0.904915 -1.006718,-0.369974 -0.44305,1.172141 -0.121497,0.17219 c -0.419804,0.596185 -1.194562,0.835586 -1.883358,0.582449 -0.09201,-0.03381 -0.178211,-0.07635 -0.259942,-0.124021 l 0.858454,-0.386816 -0.446475,-0.963386 -1.112452,0.501267 c -0.11758,-0.336252 -0.122295,-0.712651 0.01315,-1.071005 l 0.259271,-0.685932 z M 60.60132,25.741707 c 0.0027,-0.178303 0.03644,-0.356073 0.10143,-0.528002 0.216947,-0.573959 0.737764,-0.966604 1.359103,-1.025194 l 0.487622,-0.04578 -0.0014,-0.482815 c -4.45e-4,-0.194168 0.03287,-0.381807 0.09943,-0.557905 0.127497,-0.337309 0.366449,-0.615794 0.669449,-0.798611 l 0.71979,2.156176 c 0.0394,0.117813 0.09133,0.229152 0.149191,0.336338 l -1.281093,0.913449 0.629498,0.858352 1.384606,-0.987106 c 0.127292,0.08002 0.263413,0.148812 0.40838,0.202088 l 0.784234,0.288209 0.375211,-0.992667 -0.784434,-0.288284 c -0.307452,-0.11299 -0.542636,-0.354082 -0.645267,-0.661324 l -0.754329,-2.25954 0.04331,-0.18374 c 0.01895,-0.07986 0.03751,-0.142912 0.05859,-0.198699 0.201938,-0.534254 0.683504,-0.922554 1.257097,-1.013163 l 0.175786,-0.02765 0.467316,1.008354 0.977025,-0.440244 -0.662704,-1.429956 c 0.413775,-0.259911 0.939651,-0.329843 1.42791,-0.150406 0.832757,0.306042 1.257635,1.222827 0.947261,2.043961 l -0.691889,1.830477 c -0.246785,-0.34326 -0.591134,-0.606157 -0.99966,-0.756292 L 66.418072,22.2266 66.04286,23.219267 66.927565,23.5444 c 0.268994,0.09886 0.482659,0.294959 0.602089,0.552298 l 0.26157,0.564406 -1.107623,2.930351 C 66.213654,27.560746 65.763699,27.357624 65.438474,27.0138 l -0.785793,0.722388 c 0.313884,0.331968 0.700961,0.58253 1.123984,0.737992 0.168726,0.06201 0.344202,0.104337 0.522121,0.135353 l -0.681159,1.802088 -1.080209,-0.396983 c -0.383761,-0.141033 -0.649394,-0.478107 -0.692992,-0.87965 l -0.150036,-1.378798 -1.068203,0.113017 0.150036,1.378796 c 0.0872,0.803086 0.618261,1.477159 1.385783,1.759228 l 1.080209,0.396981 -0.750421,1.985333 c -0.244488,0.646821 -0.873716,1.042359 -1.536742,1.032268 l 0.296867,-0.785398 c 0.200438,-0.530283 0.179472,-1.105755 -0.05911,-1.62056 l -0.354023,-0.763896 -0.977023,0.440244 0.354023,0.763896 c 0.119152,0.257466 0.129674,0.545102 0.02942,0.810343 l -0.297241,0.78639 c -0.402058,-0.332265 -0.624797,-0.847127 -0.566668,-1.384937 l 0.04573,-0.424336 -0.410505,-0.134583 -0.04824,-0.01434 c -0.832757,-0.306042 -1.257635,-1.222826 -0.947261,-2.043959 0.0012,-0.0032 0.003,-0.0066 0.0042,-0.0098 l 1.744957,-0.610022 -0.359154,-0.998451 -1.563209,0.546575 c -0.206699,-0.394102 -0.243186,-0.85996 -0.08305,-1.28363 0.129071,-0.341478 0.365608,-0.620851 0.683864,-0.808237 l 0.0743,-0.04369 1.127121,0.414223 0.375211,-0.992667 -1.423901,-0.523292 z"
         inkscape:connector-curvature="0" />
    </g>
    <path
       stroke="null"
       transform="rotate(120.02179,70.658317,44.340686)"
       id="svg_67"
       d="m 71.582616,42.935994 c -0.885178,0.182366 -1.681839,0.547097 -2.567017,1.094193 -0.442589,0.273548 -0.619625,0.820645 -0.354071,1.276559 0.177036,0.273548 0.442589,0.455914 0.796661,0.455914 0.177036,0 0.265554,0 0.442589,-0.09118 0.796661,-0.455914 1.504803,-0.729462 2.212946,-0.911828 0.442589,-0.09118 0.796661,-0.638279 0.619625,-1.094193 -0.177036,-0.547097 -0.708143,-0.820645 -1.150732,-0.729462 z"
       inkscape:connector-curvature="0" />
    <path
       id="svg_71"
       d="m 76.109191,65.955571 c 0.08532,0 -116.808767,-49.829306 -116.723488,-49.829306"
       fill-opacity="null"
       stroke-opacity="null"
       stroke-width="null"
       stroke="null"
       fill="null"
       inkscape:connector-curvature="0"
       style="opacity:0.5" />
    <path
       d="m 69.709877,43.174023 c 0.08533,-0.255974 0.184547,-0.478622 0.511948,-0.853241 0.359528,-0.411377 0.707581,-0.622265 0.767914,-0.682594 0.06033,-0.06033 0.08533,-0.17065 0.255974,-0.341297 l 0.170647,-0.170647 0.08533,-0.08533"
       id="svg_72"
       fill-opacity="null"
       stroke-opacity="null"
       stroke-width="NaN"
       stroke="null"
       inkscape:connector-curvature="0"
       style="fill:none" />
    <path
       d="m 72.866875,40.87027 c 0.08532,0 0.2239,0.06384 1.365189,0.597267 0.83252,0.389114 1.438843,0.787884 2.303749,1.279865 1.095032,0.622883 1.306313,0.626064 1.535835,0.767918 0.307938,0.190315 0.682594,0.68259 0.853241,0.853241 v 0.08532 -0.08532"
       id="svg_73"
       fill-opacity="null"
       stroke-opacity="null"
       stroke-width="NaN"
       stroke="null"
       inkscape:connector-curvature="0"
       style="fill:none" />
    <path
       d="m 8.361813,48.634769 c 0,0.25597 0,0.767914 0,1.279861 0,0.597267 -0.049644,1.622192 0,2.815697 0.042699,1.02655 0.151869,2.134708 0.255973,3.242317 0.144604,1.538506 0.191365,3.511814 0.597269,5.290096 0.294765,1.291374 0.767918,2.474403 1.194538,3.924911 l 0.341296,1.023888 0.511946,0.682594 0.255972,0.511948"
       id="svg_74"
       fill-opacity="null"
       stroke-opacity="null"
       stroke-width="NaN"
       stroke="null"
       inkscape:connector-curvature="0"
       style="fill:none" />
    <polyline
       id="svg_75"
       points="133.702994952793,55.20472755806021 133.3616983372872,55.54602417356599 "
       fill-opacity="null"
       stroke-opacity="null"
       stroke-width="NaN"
       stroke="null"
       style="fill:none;stroke-linecap:round" />
    <path
       stroke="null"
       transform="rotate(-145.13446,71.517084,38.87219)"
       id="svg_80"
       d="m 71.023805,36.405587 -0.05501,4.936666 h 1.096591 v -4.940109 l -1.04158,0.0034 z"
       fill-opacity="null"
       stroke-opacity="null"
       stroke-width="null"
       fill="null"
       inkscape:connector-curvature="0" />
    <style
       transform="matrix(9.687682667988668,0,0,9.687682667988668,0,0) "
       type="text/css"
       id="style35">.st0{fill:none;stroke:#000000;stroke-width:2;stroke-linecap:round;stroke-linejoin:round;stroke-miterlimit:10;}
	.st1{fill:none;stroke:#000000;stroke-width:2;stroke-linecap:round;stroke-linejoin:round;}
	.st2{fill:none;stroke:#000000;stroke-width:2;stroke-linecap:round;stroke-linejoin:round;stroke-dasharray:2.9177,3.8902;}
	.st3{fill:none;stroke:#000000;stroke-width:2;stroke-linecap:round;stroke-linejoin:round;stroke-dasharray:2.9655,3.954;}
	.st4{fill:none;stroke:#000000;stroke-width:2;stroke-linecap:round;stroke-linejoin:round;stroke-dasharray:2.7633,3.6844;}
	.st5{fill:none;stroke:#000000;stroke-width:2;stroke-miterlimit:10;}</style>
    <g
       stroke="null"
       id="svg_96" />
    <path
       stroke="null"
       transform="rotate(135.90512,69.009759,50.21724)"
       id="svg_102"
       d="m 69.934048,48.812547 c -0.885178,0.182366 -1.681839,0.547097 -2.567017,1.094193 -0.442589,0.273549 -0.619625,0.820645 -0.354072,1.276559 0.177036,0.273548 0.44259,0.455914 0.796661,0.455914 0.177036,0 0.265554,0 0.442589,-0.09118 0.796661,-0.455914 1.504804,-0.729462 2.212946,-0.911828 0.44259,-0.09118 0.796661,-0.638279 0.619625,-1.094193 -0.177035,-0.547096 -0.708142,-0.820645 -1.150732,-0.729462 z"
       inkscape:connector-curvature="0" />
    <g
       stroke="null"
       transform="rotate(-14.868987,44.934507,57.250185)"
       id="svg_104">
      <path
         stroke="null"
         id="svg_103"
         d="m 49.056257,55.795178 c 0.0084,0.07058 0.05203,0.136973 0.0915,0.168077 0.05921,0.04666 0.114239,0.05802 0.184818,0.04966 0.141157,-0.01674 0.234471,-0.135163 0.217732,-0.276321 l -0.418495,-3.528951 c 0,0 0,0 0,0 -0.0084,-0.07058 -0.03229,-0.121421 -0.0915,-0.168078 -0.05921,-0.04666 -0.114239,-0.05802 -0.184817,-0.04965 0,0 0,0 0,0 l -3.528951,0.418495 c -0.141159,0.01674 -0.234473,0.135163 -0.217732,0.276321 0.01674,0.141158 0.135163,0.234472 0.276321,0.217732 l 2.92903,-0.347351 -0.559882,0.71054 -3.423083,0.40594 c -0.141159,0.01674 -0.234472,0.135163 -0.217732,0.276321 0.01674,0.141158 0.135163,0.234472 0.276321,0.217732 l 2.92903,-0.347351 -0.559882,0.71054 -3.423083,0.40594 c -0.141159,0.01674 -0.234472,0.135163 -0.217732,0.276321 0.01674,0.141158 0.135163,0.234472 0.276321,0.217732 l 2.92903,-0.347351 -0.528778,0.671066 -3.423083,0.40594 c -0.141158,0.01674 -0.234472,0.135163 -0.217732,0.276321 0.01674,0.141157 0.135163,0.234471 0.276321,0.217732 l 2.92903,-0.347351 -4.572371,5.802746 c -0.09331,0.118423 -0.07657,0.259581 0.04185,0.352895 0.118423,0.09331 0.259582,0.07657 0.352895,-0.04185 l 4.587924,-5.822483 0.347351,2.92903 c 0.0084,0.07058 0.05203,0.136973 0.0915,0.168077 0.05921,0.04666 0.114239,0.05802 0.184818,0.04966 0.141158,-0.01674 0.234471,-0.135163 0.217732,-0.276321 l -0.40594,-3.423083 0.528778,-0.671066 0.347351,2.92903 c 0.0084,0.07058 0.05203,0.136973 0.0915,0.168077 0.05921,0.04666 0.114238,0.05802 0.184818,0.04965 0.141157,-0.01674 0.234471,-0.135163 0.217732,-0.276321 l -0.40594,-3.423083 0.559882,-0.71054 0.347351,2.92903 c 0.0084,0.07058 0.05203,0.136973 0.0915,0.168077 0.05921,0.04666 0.114238,0.05803 0.184818,0.04965 0.141157,-0.01674 0.234471,-0.135163 0.217732,-0.276321 l -0.40594,-3.423083 0.559882,-0.71054 0.331798,2.948767 z"
         inkscape:connector-curvature="0" />
    </g>
    <path
       stroke="null"
       transform="rotate(-22.892754,65.279794,55.402679)"
       id="svg_105"
       d="m 66.140643,53.921594 c -0.3,0.2 -0.6,0.3 -0.9,0.4 -0.5,0.3 -1.1,0.5 -1.7,0.7 -0.5,0.2 -0.8,0.7 -0.6,1.3 0.1,0.4 0.5,0.7 1,0.7 0.1,0 0.2,0 0.3,0 0.6,-0.2 1.3,-0.5 1.9,-0.7 0.3,-0.2 0.6,-0.3 1,-0.5 0.5,-0.3 0.7,-0.9 0.4,-1.4 -0.3,-0.6 -0.9,-0.8 -1.4,-0.5 z"
       inkscape:connector-curvature="0" />
    <g
       stroke="null"
       transform="rotate(19.088064,54.295317,76.95218)"
       id="svg_135">
      <path
         stroke="null"
         id="svg_132"
         d="m 61.58239,82.453169 -5.912395,-11.25889 c 0.0028,-0.0028 0,-0.0028 0,-0.0028 a 0.532983,0.532983 0 0 0 -0.04505,-0.06475 0.514728,0.514728 0 0 0 -0.06197,-0.04786 0.264766,0.264766 0 0 0 -0.06476,-0.02815 0.289144,0.289144 0 0 0 -0.154829,0 0.266221,0.266221 0 0 0 -0.06478,0.02815 0.522943,0.522943 0 0 0 -0.06194,0.04786 0.334951,0.334951 0 0 0 -0.04502,0.06475 v 0.0028 l -3.170176,6.03909 -0.836182,-1.542854 c 0,-0.0028 -0.0028,-0.0028 -0.0056,-0.0056 a 0.211475,0.211475 0 0 0 -0.04223,-0.05631 0.267266,0.267266 0 0 0 -0.05633,-0.04223 0.151985,0.151985 0 0 0 -0.03657,-0.01971 0.222137,0.222137 0 0 0 -0.03945,-0.01408 0.274614,0.274614 0 0 0 -0.13514,0 0.163627,0.163627 0 0 0 -0.03939,0.01408 0.084395,0.084395 0 0 0 -0.02818,0.01126 0.271261,0.271261 0 0 0 -0.112589,0.112617 l -3.660054,6.757023 a 0.282221,0.282221 0 0 0 0.495515,0.270281 l 3.412269,-6.300924 0.833389,1.540038 0.01688,0.03097 2.562055,4.729916 a 0.282224,0.282224 0 0 0 0.495515,-0.270281 l -2.502939,-4.620115 0.875623,-1.666732 0.99103,0.99103 a 0.285467,0.285467 0 0 0 0.399768,0 l 0.926298,-0.926275 0.926275,0.926275 a 0.285467,0.285467 0 0 0 0.399768,0 l 0.867174,-0.867151 3.375696,6.427618 a 0.279651,0.279651 0 0 0 0.250542,0.152033 0.311949,0.311949 0 0 0 0.129532,-0.03097 0.281303,0.281303 0 0 0 0.11827,-0.380083 z M 56.641303,76.552035 55.715028,75.62576 a 0.283747,0.283747 0 0 0 -0.399768,0 l -0.926298,0.926275 -0.915014,-0.915014 1.948253,-3.710732 2.013072,3.831795 -0.79397,0.79395 z"
         inkscape:connector-curvature="0" />
    </g>
    <path
       stroke="null"
       transform="rotate(133.52264,71.387558,39.001724)"
       id="svg_136"
       d="m 70.894271,36.535121 -0.05501,4.936665 h 1.096592 v -4.940109 l -1.041581,0.0034 z"
       fill-opacity="null"
       stroke-opacity="null"
       stroke-width="null"
       fill="null"
       inkscape:connector-curvature="0" />
  </g>
  <text
     xml:space="preserve"
     style="font-style:normal;font-weight:normal;line-height:0%;font-family:sans-serif;letter-spacing:0px;word-spacing:0px;fill:#000000;fill-opacity:1;stroke:none;stroke-width:1px;stroke-linecap:butt;stroke-linejoin:miter;stroke-opacity:1"
     x="87.217041"
     y="63.348896"
     id="text3377"
     inkscape:export-xdpi="154.89"
     inkscape:export-ydpi="154.89"><tspan
       sodipodi:role="line"
       id="tspan3379"
       x="87.217041"
       y="63.348896"
       style="font-style:normal;font-variant:normal;font-weight:normal;font-stretch:normal;font-size:51.25px;line-height:1.25;font-family:Poly;-inkscape-font-specification:Poly">Neuroscout</tspan></text>
</svg>
