<?xml version="1.0" encoding="UTF-8" standalone="no"?>
<svg
   width="390"
   height="90"
   id="svg2"
   version="1.1"
   inkscape:version="1.1.2 (0a00cf5339, 2022-02-04)"
   sodipodi:docname="neuroscout_paths.svg"
   inkscape:export-filename="/home/zorro/Downloads/dark_blue.png"
   inkscape:export-xdpi="90"
   inkscape:export-ydpi="90"
   xmlns:inkscape="http://www.inkscape.org/namespaces/inkscape"
   xmlns:sodipodi="http://sodipodi.sourceforge.net/DTD/sodipodi-0.dtd"
   xmlns="http://www.w3.org/2000/svg"
   xmlns:svg="http://www.w3.org/2000/svg"
   xmlns:rdf="http://www.w3.org/1999/02/22-rdf-syntax-ns#"
   xmlns:cc="http://creativecommons.org/ns#"
   xmlns:dc="http://purl.org/dc/elements/1.1/">
  <metadata
     id="metadata49">
    <rdf:RDF>
      <cc:Work
         rdf:about="">
        <dc:format>image/svg+xml</dc:format>
        <dc:type
           rdf:resource="http://purl.org/dc/dcmitype/StillImage" />
      </cc:Work>
    </rdf:RDF>
  </metadata>
  <defs
     id="defs47">
    <style
       type="text/css"
       id="style18849">
   
    .fil0 {fill:black;fill-rule:nonzero}
   
  </style>
  </defs>
  <sodipodi:namedview
     pagecolor="#ffffff"
     bordercolor="#666666"
     borderopacity="1"
     objecttolerance="10"
     gridtolerance="10"
     guidetolerance="10"
     inkscape:pageopacity="0"
     inkscape:pageshadow="2"
     inkscape:window-width="1846"
     inkscape:window-height="1136"
     id="namedview45"
     showgrid="false"
     showguides="false"
     inkscape:zoom="1.3350176"
     inkscape:cx="240.8208"
     inkscape:cy="49.063024"
     inkscape:window-x="74"
     inkscape:window-y="27"
     inkscape:window-maximized="1"
     inkscape:current-layer="text3377"
     width="250px"
     inkscape:pagecheckerboard="0" />
  <style
     type="text/css"
     id="style4">.st0{fill:none;stroke:#000000;stroke-width:2;stroke-linecap:round;stroke-linejoin:round;stroke-miterlimit:10;}
	.st1{fill:none;stroke:#000000;stroke-width:2;stroke-linecap:round;stroke-linejoin:round;}
	.st2{fill:none;stroke:#000000;stroke-width:2;stroke-linecap:round;stroke-linejoin:round;stroke-dasharray:2.9177,3.8902;}
	.st3{fill:none;stroke:#000000;stroke-width:2;stroke-linecap:round;stroke-linejoin:round;stroke-dasharray:2.9655,3.954;}
	.st4{fill:none;stroke:#000000;stroke-width:2;stroke-linecap:round;stroke-linejoin:round;stroke-dasharray:2.7633,3.6844;}
	.st5{fill:none;stroke:#000000;stroke-width:1.8;stroke-linecap:round;stroke-linejoin:round;stroke-miterlimit:10;}</style>
  <g
     id="g6"
     transform="translate(0,-35)">
    <title
       id="title8">background</title>
    <rect
       id="canvas_background"
       height="402"
       width="582"
       y="-1"
       x="-1"
       style="fill:none" />
  </g>
  <g
     aria-label="Neuroscout"
     id="text3377"
     style="font-size:50.6667px;line-height:0%;letter-spacing:0px;word-spacing:0px;stroke-width:1px">
    <path
       d="m 93.979711,63.348896 v -37.74669 h 2.786668 L 119.61706,58.38356 h -1.064 V 25.602206 h 3.29333 v 37.74669 h -2.78666 L 96.107712,30.364875 h 1.165334 v 32.984021 z"
       style="font-weight:300;line-height:1.25;font-family:'Plus Jakarta Sans';-inkscape-font-specification:'Plus Jakarta Sans Light'"
       id="path5243" />
    <path
       d="m 143.07572,63.956896 q -3.80001,0 -6.84001,-1.824001 -3.04,-1.874668 -4.81333,-5.06667 -1.77334,-3.242668 -1.77334,-7.245337 0,-4.00267 1.72267,-7.144005 1.72267,-3.192002 4.66134,-5.016003 2.93866,-1.824001 6.58667,-1.824001 2.78666,0 5.016,1.013334 2.28,1.013334 3.90133,2.837335 1.67201,1.773334 2.53334,4.104002 0.912,2.280002 0.912,4.813337 0,0.506667 -0.0507,1.064 -0.0507,0.557334 -0.152,1.165335 h -23.35734 v -2.786669 h 21.63468 l -1.36801,1.064001 q 0.30401,-2.938669 -0.86133,-5.269337 -1.16533,-2.381335 -3.344,-3.749336 -2.128,-1.418667 -4.864,-1.418667 -2.73601,0 -5.01601,1.469334 -2.28,1.418668 -3.59733,3.952003 -1.31734,2.482668 -1.216,5.776003 -0.10134,3.293336 1.26666,5.826671 1.368,2.533334 3.74934,4.002669 2.38133,1.418667 5.26934,1.418667 2.93866,0 5.11733,-1.368001 2.17867,-1.418667 3.54667,-3.749335 l 2.584,1.368001 q -0.912,1.874667 -2.584,3.394668 -1.672,1.469335 -3.90133,2.330669 -2.17867,0.861333 -4.76267,0.861333 z"
       style="font-weight:300;line-height:1.25;font-family:'Plus Jakarta Sans';-inkscape-font-specification:'Plus Jakarta Sans Light'"
       id="path5245" />
    <path
       d="m 171.75298,63.956896 q -2.736,0 -5.06667,-1.266667 -2.28,-1.266668 -3.648,-3.546669 -1.368,-2.330668 -1.368,-5.52267 V 36.444879 h 3.04 v 16.922677 q 0,2.381335 0.96267,4.104003 1.01333,1.672001 2.68533,2.584002 1.72267,0.912 3.85067,0.912 2.33067,0 4.00267,-1.064 1.72267,-1.064001 2.63467,-2.938669 0.912,-1.925335 0.912,-4.357336 V 36.444879 h 3.04 v 26.904017 h -3.04 v -5.472003 l 0.76,0.253333 q -0.912,2.634668 -3.24267,4.256003 -2.33066,1.570667 -5.52267,1.570667 z"
       style="font-weight:300;line-height:1.25;font-family:'Plus Jakarta Sans';-inkscape-font-specification:'Plus Jakarta Sans Light'"
       id="path5247" />
    <path
       d="M 191.20893,63.348896 V 36.444879 h 3.04 v 5.016003 l -0.55733,-0.456 q 0.86133,-2.280001 2.93867,-3.597336 2.128,-1.317334 5.016,-1.317334 h 1.72267 v 3.040002 h -2.07734 q -3.29333,0 -5.168,2.128001 -1.87467,2.077335 -1.87467,5.624004 v 16.466677 z"
       style="font-weight:300;line-height:1.25;font-family:'Plus Jakarta Sans';-inkscape-font-specification:'Plus Jakarta Sans Light'"
       id="path5249" />
    <path
       d="m 220.89955,63.956896 q -3.85067,0 -6.94133,-1.824001 -3.09067,-1.824001 -4.91467,-5.016003 -1.77334,-3.242669 -1.77334,-7.245338 0,-4.002669 1.77334,-7.194671 1.824,-3.192002 4.864,-5.016003 3.09067,-1.824001 6.992,-1.824001 3.85067,0 6.94134,1.824001 3.09067,1.824001 4.864,5.016003 1.77334,3.141335 1.77334,7.194671 0,4.053336 -1.824,7.245338 -1.824,3.192002 -4.91467,5.016003 -3.04,1.824001 -6.84001,1.824001 z m 0,-2.989335 q 2.888,0 5.21867,-1.418667 2.38134,-1.469335 3.74934,-4.00267 1.368,-2.533334 1.368,-5.67467 0,-3.141335 -1.368,-5.624003 -1.368,-2.482669 -3.69867,-3.952003 -2.33067,-1.469334 -5.26934,-1.469334 -2.93867,0 -5.32,1.469334 -2.33067,1.418668 -3.69867,3.952003 -1.368,2.482668 -1.368,5.624003 0,3.141336 1.368,5.67467 1.41867,2.533335 3.74934,4.00267 2.33066,1.418667 5.26933,1.418667 z"
       style="font-weight:300;line-height:1.25;font-family:'Plus Jakarta Sans';-inkscape-font-specification:'Plus Jakarta Sans Light'"
       id="path5251" />
    <path
       d="m 250.84349,63.956896 q -3.74933,0 -6.58667,-1.874667 -2.83733,-1.874668 -4.15467,-5.117337 l 2.63467,-1.216001 q 1.26667,2.482668 3.39467,3.952003 2.128,1.418667 4.712,1.418667 2.63467,0 4.408,-1.266667 1.82401,-1.317334 1.82401,-3.445336 0,-1.317334 -0.70934,-2.229334 -0.65866,-0.912001 -1.72267,-1.469335 -1.064,-0.608 -2.28,-0.912 l -4.15467,-1.165334 q -3.496,-0.962668 -5.168,-2.837335 -1.62133,-1.874668 -1.62133,-4.408003 0,-2.280002 1.16533,-3.952003 1.16533,-1.722667 3.14134,-2.634668 1.976,-0.962667 4.35733,-0.962667 3.344,0 6.08001,1.722668 2.736,1.722667 3.85066,4.661336 l -2.736,1.266667 q -1.064,-2.280001 -2.98933,-3.546669 -1.92534,-1.317334 -4.25601,-1.317334 -2.432,0 -3.952,1.317334 -1.52,1.266668 -1.52,3.242669 0,1.266668 0.608,2.128001 0.608,0.810668 1.57067,1.368001 1.01333,0.506667 2.07733,0.810667 l 4.50934,1.317335 q 3.29334,0.912 5.06667,2.888001 1.824,1.976002 1.824,4.661337 0,2.178668 -1.216,3.901335 -1.216,1.722668 -3.344,2.736002 -2.128,0.962667 -4.81334,0.962667 z"
       style="font-weight:300;line-height:1.25;font-family:'Plus Jakarta Sans';-inkscape-font-specification:'Plus Jakarta Sans Light'"
       id="path5253" />
    <path
       d="m 279.77414,63.956896 q -3.85067,0 -6.89067,-1.824001 -2.98933,-1.874668 -4.76267,-5.06667 -1.72267,-3.192002 -1.72267,-7.194671 0,-4.053336 1.72267,-7.194671 1.77334,-3.192002 4.76267,-5.016003 3.04,-1.824001 6.89067,-1.824001 2.53334,0 4.66134,0.861334 2.17867,0.861334 3.85067,2.330668 1.672,1.469334 2.53333,3.394669 l -2.68533,1.418667 q -1.216,-2.330668 -3.39467,-3.698669 -2.17867,-1.368001 -4.96534,-1.368001 -2.888,0 -5.21867,1.418668 -2.28,1.418667 -3.648,3.952002 -1.368,2.482669 -1.368,5.725337 0,3.242669 1.368,5.776004 1.368,2.482668 3.648,3.901336 2.33067,1.418667 5.21867,1.418667 2.78667,0 4.96534,-1.368001 2.17867,-1.368001 3.39467,-3.749335 l 2.68533,1.469334 q -0.86133,1.874668 -2.53333,3.394669 -1.672,1.469334 -3.85067,2.381335 -2.128,0.861333 -4.66134,0.861333 z"
       style="font-weight:300;line-height:1.25;font-family:'Plus Jakarta Sans';-inkscape-font-specification:'Plus Jakarta Sans Light'"
       id="path5255" />
    <path
       d="m 310.63008,63.956896 q -3.85067,0 -6.94134,-1.824001 -3.09067,-1.824001 -4.91467,-5.016003 -1.77334,-3.242669 -1.77334,-7.245338 0,-4.002669 1.77334,-7.194671 1.824,-3.192002 4.864,-5.016003 3.09067,-1.824001 6.99201,-1.824001 3.85066,0 6.94133,1.824001 3.09067,1.824001 4.86401,5.016003 1.77333,3.141335 1.77333,7.194671 0,4.053336 -1.824,7.245338 -1.824,3.192002 -4.91467,5.016003 -3.04,1.824001 -6.84,1.824001 z m 0,-2.989335 q 2.888,0 5.21867,-1.418667 2.38133,-1.469335 3.74933,-4.00267 1.368,-2.533334 1.368,-5.67467 0,-3.141335 -1.368,-5.624003 -1.368,-2.482669 -3.69867,-3.952003 -2.33067,-1.469334 -5.26933,-1.469334 -2.93867,0 -5.32001,1.469334 -2.33067,1.418668 -3.69867,3.952003 -1.368,2.482668 -1.368,5.624003 0,3.141336 1.368,5.67467 1.41867,2.533335 3.74934,4.00267 2.33067,1.418667 5.26934,1.418667 z"
       style="font-weight:300;line-height:1.25;font-family:'Plus Jakarta Sans';-inkscape-font-specification:'Plus Jakarta Sans Light'"
       id="path5257" />
    <path
       d="m 341.03002,63.956896 q -2.736,0 -5.06667,-1.266667 -2.28,-1.266668 -3.648,-3.546669 -1.368,-2.330668 -1.368,-5.52267 V 36.444879 h 3.04 v 16.922677 q 0,2.381335 0.96267,4.104003 1.01333,1.672001 2.68533,2.584002 1.72267,0.912 3.85067,0.912 2.33067,0 4.00267,-1.064 1.72267,-1.064001 2.63467,-2.938669 0.912,-1.925335 0.912,-4.357336 V 36.444879 h 3.04 v 26.904017 h -3.04 v -5.472003 l 0.76,0.253333 q -0.912,2.634668 -3.24267,4.256003 -2.33067,1.570667 -5.52267,1.570667 z"
       style="font-weight:300;line-height:1.25;font-family:'Plus Jakarta Sans';-inkscape-font-specification:'Plus Jakarta Sans Light'"
       id="path5259" />
    <path
       d="m 370.26465,63.652896 q -3.344,0 -5.168,-1.874668 -1.82401,-1.925334 -1.82401,-5.573336 V 39.332881 h -5.06667 v -2.888002 h 1.92534 q 1.52,0 2.33067,-0.912 0.81066,-0.912001 0.81066,-2.482669 v -2.888001 h 3.04001 v 6.28267 h 5.87733 v 2.888002 h -5.87733 v 16.872011 q 0,1.114667 0.304,2.178668 0.35466,1.064 1.31733,1.722667 0.96267,0.658667 2.78667,0.658667 0.40533,0 0.96267,-0.05067 0.608,-0.05067 0.96266,-0.101334 v 2.736002 q -0.55733,0.152 -1.26666,0.202667 -0.70934,0.101333 -1.11467,0.101333 z"
       style="font-weight:300;line-height:1.25;font-family:'Plus Jakarta Sans';-inkscape-font-specification:'Plus Jakarta Sans Light'"
       id="path5261" />
  </g>
  <style
     type="text/css"
     id="style4-7">.st0{fill:none;stroke:#000000;stroke-width:2;stroke-linecap:round;stroke-linejoin:round;stroke-miterlimit:10;}
	.st1{fill:none;stroke:#000000;stroke-width:2;stroke-linecap:round;stroke-linejoin:round;}
	.st2{fill:none;stroke:#000000;stroke-width:2;stroke-linecap:round;stroke-linejoin:round;stroke-dasharray:2.9177,3.8902;}
	.st3{fill:none;stroke:#000000;stroke-width:2;stroke-linecap:round;stroke-linejoin:round;stroke-dasharray:2.9655,3.954;}
	.st4{fill:none;stroke:#000000;stroke-width:2;stroke-linecap:round;stroke-linejoin:round;stroke-dasharray:2.7633,3.6844;}
	.st5{fill:none;stroke:#000000;stroke-width:1.8;stroke-linecap:round;stroke-linejoin:round;stroke-miterlimit:10;}</style>
  <g
     style="clip-rule:evenodd;fill-rule:evenodd;image-rendering:optimizeQuality;shape-rendering:geometricPrecision;text-rendering:geometricPrecision"
     id="g18864"
     transform="matrix(0.08404081,0,0,0.08404081,11.839533,8.1429684)"
     inkscape:export-filename="/home/zorro/Downloads/neuroscout_dark_blue.png"
     inkscape:export-xdpi="154.89"
     inkscape:export-ydpi="154.89">
    <path
       class="fil0"
       d="m 423.33,777.26 c 78.64682,0 151.29971,-25.64779 210.05141,-69.03609 C 720.65954,643.76875 777.26,540.16318 777.26,423.33 777.26,227.85 618.81,69.4 423.33,69.4 227.85,69.4 69.4,227.85 69.4,423.33 c 0,195.48 158.45,353.93 353.93,353.93 z m 22.2,-35.54 C 604.1,730.82 730.83,604.1 741.72,445.53 h -56.2 v -44.4 h 56.2 C 730.83,242.56 604.1,115.84 445.53,104.94 v 56.2 h -44.4 v -56.2 c -158.57,10.9 -285.3,137.62 -296.19,296.19 h 56.2 v 44.4 h -56.2 c 10.89,158.57 137.62,285.29 296.19,296.19 v -56.2 h 44.4 z M 557.56,241.13 516.72,461.98 c -1.69,9.14 -6.15,16.88 -13.22,22.91 L 332.65,630.68 c -21.57,18.44 -48.72,2.76 -43.55,-25.15 l 40.84,-220.85 c 1.69,-9.14 6.15,-16.88 13.22,-22.91 L 514.01,215.98 c 21.57,-18.44 48.72,-2.76 43.55,25.15 z M 440.98,392.75 c 16.89,9.76 22.67,31.35 12.93,48.23 -9.76,16.89 -31.35,22.67 -48.24,12.93 -16.88,-9.76 -22.66,-31.35 -12.92,-48.23 9.76,-16.89 31.35,-22.67 48.23,-12.93 z m -17.65,425.38 c -218.04,0 -394.8,-176.76 -394.8,-394.8 0,-218.04 176.76,-394.8 394.8,-394.8 218.04,0 394.8,176.76 394.8,394.8 0,218.04 -176.76,394.8 -394.8,394.8 z"
       id="path18853"
       style="fill:#3f66ad;fill-opacity:1"
       sodipodi:nodetypes="sssssscccccccccccccccccccccccccccccccsssss" />
  </g>
</svg>
